<svg width="24" height="24" viewBox="0 0 24 24" fill="none" xmlns="http://www.w3.org/2000/svg">
<path d="M24 12C24 18.6274 18.6274 24 12 24C5.37258 24 0 18.6274 0 12C0 5.37258 5.37258 0 12 0C18.6274 0 24 5.37258 24 12Z" fill="white"/>
<path d="M11.1166 0.0324C4.9018 0.4846 0 5.6696 0 12C0 15.7224 1.695 19.0488 4.355 21.2496L14.0176 7.6278L11.1166 0.0324ZM18.2042 1.7264C16.3936 0.6306 14.2706 0 12 0C11.982 0 11.9642 0.0006 11.9462 0.0006L15.6872 5.2744L18.2042 1.7264ZM10.2608 23.874C10.8286 23.9564 11.4092 24 12 24C14.7556 24 17.2938 23.0706 19.3196 21.5088L15.2418 10.8328L10.2608 23.874ZM18.6194 1.9902L16.7778 6.8116L23.3094 16.0196C23.756 14.7628 24 13.41 24 12C24 7.8192 21.8616 4.1384 18.6194 1.9902Z" fill="url(#paint0_linear_67_17)"/>
<defs>
<linearGradient id="paint0_linear_67_17" x1="1.60576" y1="18.0006" x2="22.3935" y2="5.99876" gradientUnits="userSpaceOnUse">
<stop offset="0.3" stop-color="#990806"/>
<stop offset="1" stop-color="#E31302"/>
</linearGradient>
</defs>
</svg>
